<svg width="250" height="250" viewBox="0 0 250 250" fill="none" xmlns="http://www.w3.org/2000/svg">
<rect width="250" height="250" rx="64" fill="white"/>
<mask id="mask0_194_21" style="mask-type:luminance" maskUnits="userSpaceOnUse" x="55" y="132" width="63" height="63">
<path d="M55 132H118V195H55V132Z" fill="white"/>
</mask>
<g mask="url(#mask0_194_21)">
<path d="M117.223 163.89C117.223 164.907 117.172 165.924 117.074 166.938C116.972 167.952 116.822 168.958 116.626 169.957C116.425 170.959 116.177 171.944 115.882 172.921C115.586 173.894 115.244 174.853 114.854 175.794C114.464 176.734 114.03 177.657 113.548 178.554C113.067 179.454 112.546 180.326 111.981 181.175C111.412 182.021 110.807 182.837 110.161 183.625C109.513 184.412 108.831 185.167 108.109 185.889C107.391 186.607 106.636 187.293 105.848 187.938C105.061 188.583 104.244 189.192 103.395 189.757C102.549 190.322 101.674 190.847 100.777 191.325C99.8766 191.806 98.9578 192.24 98.0172 192.63C97.0766 193.02 96.1177 193.363 95.1406 193.662C94.1672 193.957 93.1792 194.205 92.1802 194.402C91.1812 194.603 90.175 194.752 89.1615 194.851C88.1479 194.949 87.1307 195 86.1099 195C85.0927 195 84.0755 194.949 83.062 194.851C82.0484 194.752 81.0422 194.603 80.0432 194.402C79.0406 194.205 78.0563 193.957 77.0792 193.662C76.1057 193.363 75.1469 193.02 74.2063 192.63C73.2656 192.24 72.3432 191.806 71.4464 191.325C70.5458 190.847 69.6745 190.322 68.825 189.757C67.9792 189.192 67.1625 188.583 66.375 187.938C65.5875 187.293 64.8328 186.607 64.1109 185.889C63.3927 185.167 62.7073 184.412 62.062 183.625C61.4167 182.837 60.8078 182.021 60.2427 181.175C59.6776 180.326 59.1526 179.454 58.675 178.554C58.1938 177.657 57.7599 176.734 57.3698 175.794C56.9797 174.853 56.637 173.894 56.338 172.921C56.0427 171.944 55.7948 170.959 55.5979 169.957C55.3974 168.958 55.2479 167.952 55.1495 166.938C55.051 165.924 55 164.907 55 163.89C55 162.869 55.051 161.852 55.1495 160.839C55.2479 159.825 55.3974 158.819 55.5979 157.82C55.7948 156.821 56.0427 155.833 56.338 154.859C56.637 153.882 56.9797 152.923 57.3698 151.983C57.7599 151.042 58.1938 150.123 58.675 149.223C59.1526 148.326 59.6776 147.451 60.2427 146.605C60.8078 145.756 61.4167 144.939 62.062 144.152C62.7073 143.364 63.3927 142.609 64.1109 141.891C64.8328 141.169 65.5875 140.487 66.375 139.839C67.1625 139.193 67.9792 138.588 68.825 138.019C69.6745 137.454 70.5458 136.933 71.4464 136.452C72.3432 135.97 73.2656 135.536 74.2063 135.146C75.1469 134.756 76.1057 134.414 77.0792 134.118C78.0563 133.823 79.0406 133.575 80.0432 133.374C81.0422 133.178 82.0484 133.028 83.062 132.926C84.0755 132.828 85.0927 132.777 86.1099 132.777C87.1307 132.777 88.1479 132.828 89.1615 132.926C90.175 133.028 91.1812 133.178 92.1802 133.374C93.1792 133.575 94.1672 133.823 95.1406 134.118C96.1177 134.414 97.0766 134.756 98.0172 135.146C98.9578 135.536 99.8766 135.97 100.777 136.452C101.674 136.933 102.549 137.454 103.395 138.019C104.244 138.588 105.061 139.193 105.848 139.839C106.636 140.487 107.391 141.169 108.109 141.891C108.831 142.609 109.513 143.364 110.161 144.152C110.807 144.939 111.412 145.756 111.981 146.605C112.546 147.451 113.067 148.326 113.548 149.223C114.03 150.123 114.464 151.042 114.854 151.983C115.244 152.923 115.586 153.882 115.882 154.859C116.177 155.833 116.425 156.821 116.626 157.82C116.822 158.819 116.972 159.825 117.074 160.839C117.172 161.852 117.223 162.869 117.223 163.89Z" fill="black"/>
</g>
<mask id="mask1_194_21" style="mask-type:luminance" maskUnits="userSpaceOnUse" x="65" y="55" width="130" height="130">
<path d="M65.7332 55H195V184.267H65.7332V55Z" fill="white"/>
</mask>
<g mask="url(#mask1_194_21)">
<path d="M133.575 153.518C133.575 133.032 116.968 116.425 96.4823 116.425C79.5182 116.425 65.7698 102.677 65.7698 85.7125C65.7698 68.7484 79.5182 55 96.4823 55H164.287C181.252 55 195 68.7484 195 85.7125V153.518C195 170.482 181.252 184.23 164.287 184.23C147.323 184.23 133.575 170.482 133.575 153.518Z" fill="black"/>
</g>
</svg>
